<!--?xml version="1.0" standalone="no"?-->
              <svg id="sw-js-blob-svg" viewBox="0 0 100 100" xmlns="http://www.w3.org/2000/svg" version="1.1">
                    <defs> 
                        <linearGradient id="sw-gradient" x1="0" x2="1" y1="1" y2="0">
                            <stop id="stop1" stop-color="rgba(248, 117, 55, 1)" offset="0%"></stop>
                            <stop id="stop2" stop-color="rgba(251, 168, 31, 1)" offset="100%"></stop>
                        </linearGradient>
                    </defs>
                <path fill="url(#sw-gradient)" d="M16.4,-29.5C21.9,-25.2,27.4,-22.1,30.4,-17.4C33.5,-12.7,34.1,-6.3,33.7,-0.2C33.3,5.9,31.9,11.7,29.8,18.1C27.7,24.5,25,31.5,19.9,36.6C14.8,41.6,7.4,44.8,0.7,43.5C-6,42.3,-11.9,36.6,-18.6,32.5C-25.3,28.4,-32.8,25.8,-38,20.6C-43.3,15.5,-46.3,7.7,-46.1,0.1C-46,-7.6,-42.6,-15.1,-37.6,-20.6C-32.5,-26.2,-25.9,-29.7,-19.3,-33.4C-12.8,-37.2,-6.4,-41.1,-0.5,-40.3C5.4,-39.5,10.9,-33.9,16.4,-29.5Z" width="100%" height="100%" transform="translate(50 50)" stroke-width="0" style="transition: 0.3s;" stroke="url(#sw-gradient)"></path>
              </svg>