<!--?xml version="1.0" standalone="no"?-->
              <svg id="sw-js-blob-svg" viewBox="0 0 100 100" xmlns="http://www.w3.org/2000/svg" version="1.1">
                    <defs> 
                        <linearGradient id="sw-gradient" x1="0" x2="1" y1="1" y2="0">
                            <stop id="stop1" stop-color="rgba(248, 117, 55, 1)" offset="0%"></stop>
                            <stop id="stop2" stop-color="rgba(251, 168, 31, 1)" offset="100%"></stop>
                        </linearGradient>
                    </defs>
                <path fill="url(#sw-gradient)" d="M21.8,-36.1C27.9,-34.3,32.2,-27.6,34.3,-20.8C36.5,-14,36.6,-7,36.5,-0.1C36.4,6.9,36.2,13.8,33.8,20.3C31.5,26.9,27,33,21,35.9C15.1,38.7,7.5,38.4,-0.4,39.1C-8.3,39.8,-16.6,41.5,-20.9,37.6C-25.1,33.7,-25.3,24.2,-29,17C-32.7,9.8,-40,4.9,-42.3,-1.3C-44.5,-7.5,-41.6,-14.9,-37.7,-21.7C-33.7,-28.4,-28.5,-34.5,-22.1,-36.1C-15.6,-37.7,-7.8,-34.8,0,-34.8C7.9,-34.9,15.7,-37.9,21.8,-36.1Z" width="100%" height="100%" transform="translate(50 50)" stroke-width="0" style="transition: 0.3s;" stroke="url(#sw-gradient)"></path>
              </svg>